<?xml version="1.0" encoding="UTF-8" standalone="no"?>
<!-- Created with Inkscape (http://www.inkscape.org/) -->

<svg
   xmlns:dc="http://purl.org/dc/elements/1.1/"
   xmlns:cc="http://creativecommons.org/ns#"
   xmlns:rdf="http://www.w3.org/1999/02/22-rdf-syntax-ns#"
   xmlns:svg="http://www.w3.org/2000/svg"
   xmlns="http://www.w3.org/2000/svg"
   xmlns:sodipodi="http://sodipodi.sourceforge.net/DTD/sodipodi-0.dtd"
   xmlns:inkscape="http://www.inkscape.org/namespaces/inkscape"
   version="1.0"
   width="376.37042"
   height="58.433796"
   id="svg2237"
   sodipodi:docname="Daihatsu wordmark.svg"
   inkscape:version="0.92.2 (5c3e80d, 2017-08-06)">
  <metadata
     id="metadata18">
    <rdf:RDF>
      <cc:Work
         rdf:about="">
        <dc:format>image/svg+xml</dc:format>
        <dc:type
           rdf:resource="http://purl.org/dc/dcmitype/StillImage" />
        <dc:title></dc:title>
      </cc:Work>
    </rdf:RDF>
  </metadata>
  <sodipodi:namedview
     pagecolor="#ffffff"
     bordercolor="#666666"
     borderopacity="1"
     objecttolerance="10"
     gridtolerance="10"
     guidetolerance="10"
     inkscape:pageopacity="0"
     inkscape:pageshadow="2"
     inkscape:window-width="1366"
     inkscape:window-height="705"
     id="namedview16"
     showgrid="false"
     fit-margin-top="0"
     fit-margin-left="0"
     fit-margin-right="0"
     fit-margin-bottom="0"
     inkscape:zoom="1"
     inkscape:cx="76.370415"
     inkscape:cy="28.507844"
     inkscape:window-x="-8"
     inkscape:window-y="-8"
     inkscape:window-maximized="1"
     inkscape:current-layer="svg2237" />
  <defs
     id="defs2239" />
  <g
     transform="translate(-379.33808,-387.67787)"
     id="layer1">
    <g
       transform="matrix(2799.7904,0,0,2797.3802,58.28573,-2418.7874)"
       id="g2225">
      <path
         d="m 109.86,94.219 h 0.02 l 0.02,0.002 0.02,0.002 0.01,0.004 0.02,0.004 0.02,0.006 0.02,0.006 0.01,0.007 0.02,0.008 0.01,0.009 0.02,0.01 0.01,0.01 0.02,0.012 0.01,0.012 0.01,0.012 0.02,0.013 0.01,0.014 0.01,0.015 0.01,0.015 0.01,0.016 0.01,0.016 0.01,0.017 0.01,0.017 v 0.018 l 0.01,0.019 0.01,0.018 v 0.019 l 0.01,0.02 v 0.02 0.02 0.02 0.021 10.979 c 0,0.22 -0.16,0.4 -0.36,0.4 h -1.96 c -0.2,0 -0.36,-0.18 -0.36,-0.4 V 94.621 c 0,-0.223 0.16,-0.402 0.36,-0.402 z"
         transform="matrix(0.0017361,0,0,-0.0017361,-0.03125,1.1875)"
         style="font-style:normal;font-variant:normal;font-weight:normal;font-stretch:normal;letter-spacing:normal;word-spacing:normal;text-anchor:start;fill:#ff0000;fill-opacity:1;fill-rule:evenodd;stroke:#e1114d;stroke-width:0;stroke-linecap:butt;stroke-linejoin:miter;stroke-miterlimit:10.43299961;stroke-dasharray:none;stroke-dashoffset:0;stroke-opacity:1"
         id="path14"
         inkscape:connector-curvature="0" />
      <path
         d="m 122.45,106 h -1.88 c -0.2,0 -0.36,-0.18 -0.36,-0.4 v -4.57 h -3.97 v 4.57 c 0,0.22 -0.16,0.4 -0.35,0.4 H 114 c -0.19,0 -0.36,-0.18 -0.36,-0.4 V 94.621 c 0,-0.223 0.17,-0.402 0.36,-0.402 h 1.89 c 0.19,0 0.35,0.179 0.35,0.402 v 5.149 h 3.97 v -5.149 c 0,-0.223 0.16,-0.402 0.36,-0.402 h 1.88 c 0.2,0 0.36,0.179 0.36,0.402 V 105.6 c 0,0.22 -0.16,0.4 -0.36,0.4 z"
         transform="matrix(0.0017361,0,0,-0.0017361,-0.03125,1.1875)"
         style="font-style:normal;font-variant:normal;font-weight:normal;font-stretch:normal;letter-spacing:normal;word-spacing:normal;text-anchor:start;fill:#ff0000;fill-opacity:1;fill-rule:evenodd;stroke:#e1114d;stroke-width:0;stroke-linecap:butt;stroke-linejoin:miter;stroke-miterlimit:10.43299961;stroke-dasharray:none;stroke-dashoffset:0;stroke-opacity:1"
         id="path16"
         inkscape:connector-curvature="0" />
      <path
         d="m 83,722.5 c -0.248749,-2e-5 -0.4375,0.225 -0.4375,0.5 v 13.71875 c -2e-6,0.27376 0.188752,0.5 0.4375,0.5 h 5.78125 c 3.413728,10e-6 6.09375,-2.09503 6.09375,-7.375 -3e-6,-5.19998 -2.642522,-7.34375 -6.03125,-7.34375 z m 2.8125,1.59375 H 88 c 2.651236,2e-5 3.5,1.76253 3.5,5.75 -10e-7,4.02996 -0.795017,5.8125 -3.5,5.8125 h -2.1875 z"
         transform="scale(0.00138889)"
         style="font-style:normal;font-variant:normal;font-weight:normal;font-stretch:normal;letter-spacing:normal;word-spacing:normal;text-anchor:start;fill:#ff0000;fill-opacity:1;fill-rule:evenodd;stroke:#e1114d;stroke-width:0;stroke-linecap:butt;stroke-linejoin:miter;stroke-miterlimit:10.43299961;stroke-dasharray:none;stroke-dashoffset:0;stroke-opacity:1"
         id="path18"
         inkscape:connector-curvature="0" />
      <path
         d="m 101.625,722.5 c -0.13125,-2e-5 -0.295,0.13125 -0.34375,0.28125 L 96.5,736.96875 c -0.04875,0.1475 0.025,0.25 0.15625,0.25 h 1.4375 c 0.132497,10e-6 0.295,-0.1025 0.34375,-0.25 l 1.1875,-3.625 h 5.15625 l 1.09375,3.375 c 0.0875,0.27376 0.3875,0.5 0.625,0.5 h 2.625 c 0.2375,10e-6 0.36875,-0.19625 0.28125,-0.46875 L 104.625,723 c -0.0875,-0.28752 -0.34375,-0.5 -0.59375,-0.5 z m 0.5625,2.9375 2.0625,6.34375 h -4.125 z"
         transform="scale(0.00138889)"
         style="font-style:normal;font-variant:normal;font-weight:normal;font-stretch:normal;letter-spacing:normal;word-spacing:normal;text-anchor:start;fill:#ff0000;fill-opacity:1;fill-rule:evenodd;stroke:#e1114d;stroke-width:0;stroke-linecap:butt;stroke-linejoin:miter;stroke-miterlimit:10.43299961;stroke-dasharray:none;stroke-dashoffset:0;stroke-opacity:1"
         id="path22"
         inkscape:connector-curvature="0" />
      <path
         d="m 138.28125,722.5 c -0.1375,-10e-6 -0.28125,0.1125 -0.34375,0.25 l -4.75,14.21875 c -0.05,0.1475 0,0.25 0.125,0.25 h 1.46875 c 0.12499,10e-6 0.29375,-0.1025 0.34375,-0.25 l 1.1875,-3.625 h 5.15625 l 1.09375,3.375 c 0.0875,0.27377 0.375,0.5 0.625,0.5 h 2.59375 c 0.2375,10e-6 0.38125,-0.22125 0.28125,-0.5 L 141.3125,723 c -0.0875,-0.27501 -0.375,-0.5 -0.625,-0.5 z m 0.59375,2.9375 2.0625,6.34375 h -4.125 z"
         transform="scale(0.00138889)"
         style="font-style:normal;font-variant:normal;font-weight:normal;font-stretch:normal;letter-spacing:normal;word-spacing:normal;text-anchor:start;fill:#ff0000;fill-opacity:1;fill-rule:evenodd;stroke:#e1114d;stroke-width:0;stroke-linecap:butt;stroke-linejoin:miter;stroke-miterlimit:10.43299961;stroke-dasharray:none;stroke-dashoffset:0;stroke-opacity:1"
         id="path26"
         inkscape:connector-curvature="0" />
      <path
         d="m 142.99,105.99 h -8.8 c -0.1,0 -0.19,-0.09 -0.19,-0.21 v -0.85 c 0,-0.12 0.08,-0.22 0.19,-0.22 h 3.13 V 94.621 c 0,-0.223 0.16,-0.402 0.36,-0.402 h 1.9 c 0.2,0 0.36,0.179 0.36,0.402 v 10.089 h 3.05 c 0.13,0 0.22,0.1 0.22,0.22 v 0.85 c 0,0.12 -0.1,0.21 -0.22,0.21 z"
         transform="matrix(0.0017361,0,0,-0.0017361,-0.03125,1.1875)"
         style="font-style:normal;font-variant:normal;font-weight:normal;font-stretch:normal;letter-spacing:normal;word-spacing:normal;text-anchor:start;fill:#ff0000;fill-opacity:1;fill-rule:evenodd;stroke:#e1114d;stroke-width:0;stroke-linecap:butt;stroke-linejoin:miter;stroke-miterlimit:10.43299961;stroke-dasharray:none;stroke-dashoffset:0;stroke-opacity:1"
         id="path30"
         inkscape:connector-curvature="0" />
      <path
         d="m 159.95,98.102 v 7.678 c 0,0.12 0.09,0.21 0.2,0.21 h 1.14 c 0.11,0 0.19,-0.09 0.19,-0.21 0,0 0,-7.303 0,-7.303 0,-0.672 0.01,-0.887 -0.02,-1.297 -0.14,-2.328 -1.64,-3.082 -4.04,-3.082 -2.85,0 -4.18,1.613 -4.44,3.066 -0.1,0.566 -0.12,1.149 -0.11,1.641 v 6.785 c 0,0.23 0.16,0.4 0.36,0.4 h 1.88 c 0.2,0 0.36,-0.17 0.36,-0.4 0,0 0,-7.645 0,-7.656 -0.01,-0.305 -0.01,-0.633 0.06,-0.981 0.12,-0.64 0.55,-1.687 2.22,-1.687 1.47,0 2.2,0.871 2.2,1.945 0,0.309 0,0.719 0,0.891 z"
         transform="matrix(0.0017361,0,0,-0.0017361,-0.03125,1.1875)"
         style="font-style:normal;font-variant:normal;font-weight:normal;font-stretch:normal;letter-spacing:normal;word-spacing:normal;text-anchor:start;fill:#ff0000;fill-opacity:1;fill-rule:evenodd;stroke:#e1114d;stroke-width:0;stroke-linecap:butt;stroke-linejoin:miter;stroke-miterlimit:10.43299961;stroke-dasharray:none;stroke-dashoffset:0;stroke-opacity:1"
         id="path32"
         inkscape:connector-curvature="0" />
      <path
         d="m 150.05,104.17 h 0.01 0.01 v 0 -0.01 h 0.01 v 0 h 0.01 v 0 h 0.01 v 0 h 0.01 v 0 h 0.01 v 0 0 h 0.01 v 0 h 0.01 v 0 h 0.01 l 0.01,0.01 h 0.01 v 0.01 h 0.01 v 0.01 h 0.01 v 0.01 l 0.01,0.01 v 0 l 0.01,0.01 v 0.01 0.01 l 0.01,0.01 v 0.01 0.01 l 0.01,0.01 v 0.01 0.01 0.01 0.01 0.01 1.01 c 0,0.14 -0.06,0.19 -0.18,0.25 0,0 -0.24,0.14 -0.82,0.3 -0.46,0.12 -1.15,0.24 -1.88,0.24 -1.73,0 -2.54,-0.57 -3.03,-1.24 -0.49,-0.66 -0.67,-1.48 -0.51,-2.38 0.27,-1.51 1.48,-2.44 2.7,-3.354 0.95,-0.715 1.87,-1.265 2.17,-2.183 0.13,-0.379 0.08,-0.957 -0.24,-1.254 -0.35,-0.321 -0.74,-0.446 -1.38,-0.446 -0.73,0 -1.64,0.157 -2.6,0.602 -0.17,0.086 -0.37,0.184 -0.37,0.184 -0.1,0.043 -0.18,-0.016 -0.18,-0.129 v -1.059 c 0,-0.117 0.08,-0.215 0.19,-0.262 0,0 0.13,-0.054 0.26,-0.097 0.8,-0.274 1.7,-0.414 2.72,-0.414 1.71,0 2.62,0.613 3.1,1.16 0.55,0.621 0.82,1.547 0.62,2.652 -0.33,1.746 -1.79,2.7 -2.96,3.52 -0.88,0.62 -1.76,1.23 -1.99,1.93 -0.16,0.53 0.06,0.89 0.19,1.07 0.23,0.31 0.75,0.54 1.42,0.54 0.59,0 1.21,-0.11 1.88,-0.43 0.14,-0.06 0.43,-0.2 0.71,-0.37 z"
         transform="matrix(0.0017361,0,0,-0.0017361,-0.03125,1.1875)"
         style="font-style:normal;font-variant:normal;font-weight:normal;font-stretch:normal;letter-spacing:normal;word-spacing:normal;text-anchor:start;fill:#ff0000;fill-opacity:1;fill-rule:evenodd;stroke:#e1114d;stroke-width:0;stroke-linecap:butt;stroke-linejoin:miter;stroke-miterlimit:10.43299961;stroke-dasharray:none;stroke-dashoffset:0;stroke-opacity:1"
         id="path34"
         inkscape:connector-curvature="0" />
    </g>
  </g>
</svg>
