<?xml version="1.0" encoding="UTF-8" standalone="no"?>
<!DOCTYPE svg PUBLIC "-//W3C//DTD SVG 1.1//EN" "http://www.w3.org/Graphics/SVG/1.1/DTD/svg11.dtd">
<svg width="100%" height="100%" viewBox="0 0 800 651" version="1.1" xmlns="http://www.w3.org/2000/svg" xmlns:xlink="http://www.w3.org/1999/xlink" xml:space="preserve" xmlns:serif="http://www.serif.com/" style="fill-rule:evenodd;clip-rule:evenodd;stroke-linejoin:round;stroke-miterlimit:2;">
    <g transform="matrix(1,0,0,1,0,-74.65)">
        <g transform="matrix(1,0,0,1,1.79372,-4.27377)">
            <path d="M584.753,132.735C566.816,215.247 559.641,252.915 543.498,312.108C527.354,371.3 518.386,421.525 498.655,448.43C484.305,468.161 460.987,480.717 435.874,482.511C412.556,484.305 387.444,484.305 364.126,482.511C339.013,480.717 315.695,468.161 301.345,448.43C281.614,423.318 270.852,369.507 256.502,312.108C242.152,254.709 233.184,215.247 215.247,132.735L188.341,134.529C177.578,134.529 168.61,136.323 159.641,138.117C159.641,138.117 170.404,306.726 175.785,378.475C181.166,453.812 190.135,579.372 197.309,676.233C197.309,676.233 213.453,678.027 238.565,679.821C263.677,681.614 278.027,681.614 278.027,681.614C288.789,638.565 303.139,581.166 317.489,556.054C326.457,541.704 342.601,532.735 360.538,532.735C373.094,530.942 385.65,530.942 400,530.942C412.556,530.942 425.112,530.942 439.462,532.735C457.399,532.735 473.543,541.704 482.511,556.054C498.655,581.166 511.211,638.565 521.973,681.614C521.973,681.614 534.529,681.614 561.435,679.821C588.341,678.027 602.691,676.233 602.691,676.233C611.659,581.166 620.628,453.812 624.215,378.475C629.596,306.726 640.359,138.117 640.359,138.117C631.39,136.323 622.422,136.323 611.659,134.529L584.753,132.735Z" style="fill-rule:nonzero;"/>
        </g>
        <g transform="matrix(1,0,0,1,1.79372,-4.27377)">
            <path d="M796.413,233.184C785.65,125.561 713.901,104.036 651.121,93.274C609.865,87.892 568.61,84.305 527.354,82.511C495.067,80.717 421.525,78.924 400,78.924C378.475,78.924 303.139,80.717 272.646,82.511C229.596,82.511 188.341,86.099 147.085,93.274C84.305,104.036 12.556,127.354 1.794,233.184C-1.794,269.058 -1.794,304.933 -1.794,340.807C-1.794,389.238 1.794,437.668 8.969,486.099C12.556,527.354 21.525,566.816 32.287,608.072C48.43,654.709 62.78,669.058 78.924,681.614C107.623,701.345 138.117,712.108 172.197,717.489C322.87,733.632 473.543,733.632 624.215,717.489C658.296,712.108 688.789,701.345 717.489,681.614C735.426,667.265 749.776,654.709 764.126,608.072C774.888,568.61 783.857,527.354 787.444,486.099C792.825,437.668 796.413,389.238 798.206,340.807C800,304.933 798.206,269.058 796.413,233.184ZM756.951,412.556C755.157,471.749 746.188,529.148 731.839,586.547C726.457,613.453 712.108,636.771 692.377,656.502C665.471,678.027 633.184,690.583 600.897,692.377C466.368,706.726 331.839,706.726 197.309,692.377C163.229,690.583 132.735,678.027 105.83,656.502C86.099,636.771 73.543,613.453 66.368,586.547C52.018,529.148 44.843,471.749 41.256,412.556C37.668,353.363 37.668,292.377 43.049,233.184C53.812,165.022 86.099,132.735 157.848,120.179C197.309,113.004 238.565,109.417 278.027,107.623C312.108,105.83 367.713,104.036 400,104.036C432.287,104.036 487.892,104.036 521.973,107.623C561.435,109.417 602.691,113.004 642.152,120.179C713.901,132.735 746.188,166.816 755.157,233.184C758.744,292.377 760.538,353.363 756.951,412.556Z" style="fill-rule:nonzero;"/>
        </g>
    </g>
</svg>
