<?xml version="1.0" encoding="UTF-8" standalone="no"?>
<!DOCTYPE svg PUBLIC "-//W3C//DTD SVG 1.1//EN" "http://www.w3.org/Graphics/SVG/1.1/DTD/svg11.dtd">
<svg width="100%" height="100%" viewBox="0 0 2500 344" version="1.1" xmlns="http://www.w3.org/2000/svg" xmlns:xlink="http://www.w3.org/1999/xlink" xml:space="preserve" xmlns:serif="http://www.serif.com/" style="fill-rule:evenodd;clip-rule:evenodd;stroke-linejoin:round;stroke-miterlimit:2;">
    <g transform="matrix(1,0,0,1,0,-11.55)">
        <path d="M960.185,60.12L960.185,154.153L853.652,154.153L853.652,60.172L794.907,60.172L794.907,306.983L853.652,306.983L853.652,207.703L960.237,207.703L960.237,306.983L1019.03,306.983L1019.03,60.12L960.185,60.12ZM1234.26,60.12L1172.79,157.857L1111.42,60.12L1042.08,60.12L1143.52,221.437L1143.52,306.931L1202.21,306.931L1202.21,221.437L1303.65,60.12L1234.26,60.12ZM1492.54,60.12L1492.54,240.985C1492.54,247.878 1487.4,253.382 1480.09,253.382L1385.96,253.382L1385.96,60.172L1327.21,60.172L1327.21,306.983L1500.77,306.983C1516.2,306.983 1528.65,302.353 1537.71,293.351C1546.71,284.297 1551.29,271.9 1551.29,256.52L1551.29,60.12L1492.54,60.12ZM1779.32,60.12L1605.71,60.12L1605.71,306.931L1664.35,306.931L1664.35,113.515L1758.69,113.515C1766.26,113.515 1771.04,119.483 1771.04,125.861L1771.04,306.931L1829.78,306.931L1829.78,110.583C1829.78,95.151 1825.15,82.703 1816.26,73.701C1807.1,64.647 1794.75,60.12 1779.32,60.12M2057.82,60.12L1884.21,60.12L1884.21,306.931L2057.82,306.931C2073.25,306.931 2085.6,302.301 2094.6,293.299C2103.7,284.246 2108.23,271.849 2108.23,256.468L2108.23,110.583C2108.23,95.151 2103.7,82.703 2094.6,73.701C2085.6,64.647 2073.2,60.12 2057.82,60.12M2049.54,126.324L2049.54,240.624C2049.54,240.762 2049.54,240.9 2049.54,241.037C2049.54,247.81 2043.97,253.383 2037.2,253.383C2037.14,253.383 2037.09,253.382 2037.04,253.382L1942.85,253.382L1942.85,113.567L2036.63,113.567C2044.34,113.567 2049.49,118.917 2049.49,126.324M2210.6,60.12C2195.16,60.12 2182.72,64.647 2173.71,73.701C2164.66,82.806 2160.18,95.203 2160.18,110.583L2160.18,306.931L2218.72,306.931L2218.72,230.594L2325.41,230.594L2325.41,306.931L2384.11,306.931L2384.11,60.12L2210.6,60.12ZM2325.41,113.567L2325.41,177.147L2218.72,177.147L2218.72,126.015C2218.72,119.945 2223.46,113.515 2231.28,113.515L2325.41,113.567ZM2441.26,306.931L2500,306.931L2500,60.12L2441.26,60.12L2441.26,306.931ZM335.7,355.439C521.142,355.439 671.502,278.433 671.502,183.526C671.502,88.515 521.142,11.561 335.7,11.561C150.309,11.561 0,88.464 0,183.526C0,278.433 150.309,355.388 335.7,355.388M398.971,271.026C393.313,284.04 383.693,311.766 361.574,322.826C354.525,326.045 346.893,327.795 339.146,327.97L335.751,327.97C273.817,327.97 216.101,319.328 167.85,304.668L165.998,303.948C161.523,302.456 159.259,300.398 159.259,297.826C159.259,295.666 160.442,293.968 162.037,292.373L165.072,289.699C176.286,280.439 209.825,256.108 273.045,231.828C295.216,223.392 322.994,212.847 352.058,206.674C369.084,203.124 432.305,193.454 398.92,271.077M568.57,97.723C569.753,95.666 571.348,93.917 574.228,93.762C575.772,93.608 577.932,93.968 581.173,96.026C620.576,120.254 643.981,150.604 643.981,183.474C643.981,242.682 567.798,293.659 458.796,315.933C451.8,317.322 447.119,317.271 445.576,315.522C444.444,314.493 444.136,312.538 445.576,310.172C446.388,308.734 447.354,307.389 448.457,306.159C507.819,236.201 553.035,132.96 565.844,103.227C566.872,101.17 567.798,99.112 568.57,97.723M273.508,95.563C279.167,82.6 288.786,54.873 310.905,43.865C317.593,40.522 325.926,38.927 333.282,38.721L336.626,38.721C398.663,38.721 456.276,47.26 504.63,62.024C504.99,62.178 506.121,62.538 506.481,62.744C510.905,64.236 513.169,66.293 513.169,68.814C513.169,71.026 511.986,72.672 510.442,74.215C509.722,74.935 508.745,75.758 507.356,76.89C496.245,86.252 462.654,110.532 399.434,134.76C377.16,143.248 349.434,153.793 320.473,159.915C303.395,163.515 240.123,173.186 273.508,95.563M212.706,50.913C219.702,49.575 224.331,49.575 226.029,51.324C227.058,52.456 227.315,54.308 225.977,56.622C225.136,58.054 224.154,59.398 223.045,60.635C163.683,130.645 118.467,233.834 105.556,263.67C104.63,265.727 103.652,267.785 102.829,269.122C101.698,271.18 100.103,272.98 97.274,273.135C95.73,273.289 93.519,272.826 90.226,270.82C50.823,246.643 27.521,216.293 27.521,183.423C27.521,124.164 103.652,73.186 212.706,50.964" style="fill:rgb(0,46,107);fill-rule:nonzero;"/>
    </g>
</svg>
