<?xml version="1.0" encoding="UTF-8" standalone="no"?>
<!DOCTYPE svg PUBLIC "-//W3C//DTD SVG 1.1//EN" "http://www.w3.org/Graphics/SVG/1.1/DTD/svg11.dtd">
<svg width="100%" height="100%" viewBox="0 0 800 518" version="1.1" xmlns="http://www.w3.org/2000/svg" xmlns:xlink="http://www.w3.org/1999/xlink" xml:space="preserve" xmlns:serif="http://www.serif.com/" style="fill-rule:evenodd;clip-rule:evenodd;stroke-linejoin:round;stroke-miterlimit:2;">
    <g transform="matrix(1,0,0,1,0,-141.2)">
        <path d="M400,141.2C179.1,141.2 0,257.067 0,399.933C0,542.9 179.1,658.8 400,658.8C620.9,658.8 800,542.933 800,399.933C800,256.933 620.9,141.2 400,141.2ZM400,547.733C367.133,547.733 340.333,483 338.667,401.567C379.477,405.14 420.523,405.14 461.333,401.567C459.667,482.967 432.867,547.733 400,547.733ZM342.7,336.933C351.633,279.367 373.933,238.5 400,238.5C426.067,238.5 448.333,279.367 457.3,336.933C419.175,340.319 380.825,340.319 342.7,336.933ZM400,178.6C357.1,178.6 320.5,242.867 307,332.567C225.667,319.9 168.9,290.967 168.9,257.367C168.9,212.033 272.367,175.333 400,175.333C527.667,175.333 631.1,212.067 631.1,257.367C631.1,290.967 574.333,319.9 493,332.567C479.5,242.9 442.9,178.633 400,178.633L400,178.6ZM57.333,390.267C57.333,346.433 74.233,305.267 103.6,269.933C103.3,272.4 103.1,274.933 103.1,277.467C103.1,332.7 185.933,379.8 301.533,397.133C301.433,401.133 301.433,405.2 301.433,409.267C301.433,512.267 330.3,599.433 370.2,629.033C194.867,618.467 57.367,515.6 57.367,390.267L57.333,390.267ZM429.8,629.033C469.7,599.433 498.567,512.233 498.567,409.267C498.567,405.167 498.5,401.167 498.467,397.167C614,379.833 696.9,332.767 696.9,277.467C696.9,274.933 696.7,272.4 696.4,269.933C725.767,305.367 742.633,346.433 742.633,390.267C742.633,515.6 605.133,618.467 429.8,629.033Z" style="fill-rule:nonzero;"/>
    </g>
</svg>
