<svg width="198" height="41" viewBox="0 0 198 41" fill="none" xmlns="http://www.w3.org/2000/svg">
<path fill-rule="evenodd" clip-rule="evenodd" d="M94.6047 13.2106C94.6047 13.2106 94.604 20.1409 94.6032 22.1222C94.6032 22.3236 94.3644 22.4287 94.2151 22.2937L88.2378 16.8695H88.2362L82.2593 22.2937C82.1098 22.4287 81.8708 22.3236 81.8708 22.1222C81.8703 20.1409 81.8695 13.2106 81.8695 13.2106H78.161V26.0128H84.2066L88.2356 22.3561H88.2388L92.2678 26.0128H98.3132V13.2106H94.6047Z" fill="#394968"/>
<path fill-rule="evenodd" clip-rule="evenodd" d="M118.464 13.2108V22.0125C118.464 22.1732 118.333 22.3037 118.172 22.3037H106.309C106.148 22.3037 106.018 22.1732 106.018 22.0125V13.2108H102.312V23.2823L105.038 26.0063V26.0067H119.443V26.0063L122.169 23.2823V13.2108H118.464Z" fill="#394968"/>
<path fill-rule="evenodd" clip-rule="evenodd" d="M129.872 22.0123V13.2106H126.168V23.2825L128.893 26.0065H142.315V22.3037H130.164C130.003 22.3037 129.872 22.1732 129.872 22.0123" fill="#394968"/>
<path fill-rule="evenodd" clip-rule="evenodd" d="M146.313 26.0119V13.206H150.023V26.0119H146.313Z" fill="#394968"/>
<path fill-rule="evenodd" clip-rule="evenodd" d="M170.166 13.2059V21.1598C170.166 21.3217 169.986 21.4177 169.852 21.3279L157.726 13.2059H154.022V26.0118H157.726V18.0578C157.726 17.8966 157.906 17.8006 158.04 17.89L170.166 26.0118H173.87V13.2059H170.166Z" fill="#394968"/>
<path fill-rule="evenodd" clip-rule="evenodd" d="M191.468 19.6086V20.957L193.86 21.8273C194.118 21.9215 194.051 22.3054 193.775 22.3054H181.867C181.706 22.3054 181.575 22.1752 181.575 22.0144V16.6475C181.575 16.4867 181.706 16.3561 181.867 16.3561H197.727V13.2061H180.596L177.87 15.9321V23.2851L180.596 26.0111H197.727V19.6086L191.468 19.6086Z" fill="#394968"/>
<path d="M46.0842 26.4903L38.8638 13.5331C38.6745 13.1941 38.187 13.1941 37.9984 13.5331L30.7782 26.4903C30.6944 26.6401 30.6944 26.8225 30.7782 26.9726L37.9984 39.9411C38.187 40.2801 38.6745 40.2801 38.8638 39.9411L46.0842 26.9726C46.1675 26.8225 46.1675 26.6401 46.0842 26.4903Z" fill="#384967"/>
<path d="M30.3869 26.1205L17.5784 3.21351C16.5392 1.3517 14.568 0.195312 12.4353 0.195312H0.652473C0.362528 0.195312 0.179581 0.507441 0.321553 0.76085L6.93993 12.6572C7.02397 12.8081 7.1829 12.9018 7.35489 12.9018H19.8711C20.0517 12.9018 20.2203 12.9931 20.3189 13.1447L20.6733 13.7531C20.7386 13.8538 20.6663 13.9869 20.546 13.9869H7.93504C7.81942 13.9869 7.74583 14.1111 7.80272 14.2129L13.3686 24.2138C14.2235 25.7447 15.8398 26.6939 17.5935 26.6939H30.0505C30.3449 26.6939 30.5302 26.3773 30.3869 26.1205Z" fill="#384967"/>
<path d="M46.4746 26.1205L59.2826 3.21351C60.3223 1.3517 62.293 0.195312 64.4257 0.195312H76.2085C76.499 0.195312 76.6819 0.507441 76.54 0.76085L69.9211 12.6572C69.837 12.8081 69.6781 12.9018 69.5058 12.9018H56.9904C56.8093 12.9018 56.6405 12.9931 56.5426 13.1447L56.1882 13.7531C56.1229 13.8538 56.1947 13.9869 56.315 13.9869H68.926C69.0421 13.9869 69.1152 14.1111 69.0588 14.2129L63.4929 24.2138C62.638 25.7447 61.0217 26.6939 59.268 26.6939H46.811C46.5161 26.6939 46.3306 26.3773 46.4746 26.1205Z" fill="#384967"/>
</svg>
